<?xml version="1.0" encoding="UTF-8" standalone="no"?>
<svg width="659px" height="307px" id="svg3009" version="1.1" xmlns="http://www.w3.org/2000/svg" xmlns:svg="http://www.w3.org/2000/svg" xmlns:rdf="http://www.w3.org/1999/02/22-rdf-syntax-ns#" xmlns:cc="http://creativecommons.org/ns#" xmlns:dc="http://purl.org/dc/elements/1.1/">
  <defs id="defs3011">
    <clipPath clipPathUnits="userSpaceOnUse" id="clipPath2675">
      <path id="path2677" d="M 0.134963,223.44655 V 0.20284 H 657.74432 v 223.24371 z"/>
    </clipPath>
  </defs>
  <metadata id="metadata3014">
    <rdf:RDF>
      <cc:Work rdf:about="">
        <dc:format>image/svg+xml</dc:format>
        <dc:type rdf:resource="http://purl.org/dc/dcmitype/StillImage"/>
      </cc:Work>
    </rdf:RDF>
  </metadata>
  <path style="fill:#000000" d="M 0.134963,0.20284 H 154.68831 V 223.44655 H 0.134963 Z m 166.675167,0 H 321.36348 V 223.44656 H 166.81013 Z m 169.70562,0 H 491.06909 V 223.44656 H 336.51575 Z m 166.67523,0 H 657.74432 V 223.44656 H 503.19098 Z" id="rect2817-8"/>
  <g clip-path="url(#clipPath2675)" style="font-size:214px;font-family:'Droid Sans';-inkscape-font-specification:'Droid Sans';fill:#ffffff" id="flowRoot2904">
    <path d="M 125.17072,187.56656 H 29.87385 v -16.30078 l 36.57227,-39.81152 c 5.22455,-5.64252 9.89187,-10.79746 14.00195,-15.46484 4.10996,-4.66724 7.61044,-9.23007 10.50146,-13.68848 2.89088,-4.45824 5.10263,-8.93399 6.63526,-13.42725 1.53247,-4.49306 2.29875,-9.38677 2.29883,-14.68115 0,-4.10991 -0.59221,-7.7323 -1.77637,-10.86719 -1.18432,-3.13463 -2.87361,-5.79918 -5.06787,-7.99365 -2.19441,-2.1942 -4.7893,-3.84866 -7.78467,-4.96338 -2.99551,-1.11444 -6.33925,-1.67173 -10.03125,-1.67187 -6.61789,0 -12.59135,1.34112 -17.92041,4.02295 -5.32913,2.6821 -10.397,6.11292 -15.20361,10.29248 L 31.441233,50.57731 c 2.786444,-2.50768 5.781883,-4.85875 8.986328,-7.05323 3.2044,-2.19419 6.65264,-4.09246 10.34473,-5.69482 3.69202,-1.60206 7.59306,-2.87338 11.70312,-3.81396 4.10998,-0.94028 8.42899,-1.41049 12.95703,-1.41065 6.68744,0 12.73057,0.94058 18.1294,2.82129 5.39868,1.88101 9.97892,4.58039 13.74072,8.09814 3.76163,3.51805 6.66999,7.80222 8.7251,12.85254 2.05491,5.05059 3.08242,10.7454 3.08252,17.08448 0,5.92133 -0.92311,11.5639 -2.76904,16.92773 -1.84613,5.36402 -4.38877,10.64087 -7.62793,15.83057 -3.23935,5.18985 -7.10556,10.39704 -11.59864,15.62158 -4.49323,5.22467 -9.35212,10.65826 -14.57666,16.30078 l -29.3623,31.24316 v 0.83594 h 71.99511 z" id="path2902"/>
    <path d="m 294.24104,110.09879 c 0,12.33014 -0.88829,23.37147 -2.66455,33.12402 -1.77647,9.75264 -4.63259,18.00752 -8.56836,24.76465 -3.93597,6.75718 -9.00383,11.91212 -15.20362,15.46485 -6.19994,3.55273 -13.72337,5.3291 -22.57031,5.3291 -8.2201,0 -15.37781,-1.77637 -21.47314,-5.3291 -6.09541,-3.55273 -11.14586,-8.70767 -15.15137,-15.46485 -4.00555,-6.75713 -7.00099,-15.01201 -8.98633,-24.76465 -1.98536,-9.75255 -2.97804,-20.79388 -2.97803,-33.12402 0,-12.32999 0.88818,-23.37132 2.66456,-33.12402 1.77635,-9.75249 4.59763,-17.98995 8.46386,-24.7124 3.86619,-6.72219 8.88181,-11.85972 15.04688,-15.4126 6.16499,-3.55258 13.63618,-5.32895 22.41357,-5.3291 8.28965,0 15.4996,1.7591 21.62988,5.27685 6.13013,3.51805 11.21541,8.63816 15.25586,15.36035 4.04027,6.72246 7.07054,14.95992 9.09082,24.71241 2.02008,9.7527 3.03017,20.82886 3.03028,33.22851 z m -78.26465,0 c 0,10.44929 0.52243,19.57493 1.56738,27.37695 1.04489,7.80213 2.71676,14.29805 5.01563,19.4878 2.29879,5.1898 5.31164,9.09084 9.03857,11.70312 3.72684,2.61232 8.27225,3.91847 13.63623,3.91846 5.36387,0 9.92669,-1.28872 13.68848,-3.86621 3.76164,-2.57745 6.84416,-6.44366 9.24756,-11.59863 2.40323,-5.15492 4.14477,-11.65084 5.22461,-19.4878 1.07966,-7.83685 1.61954,-17.01474 1.61962,-27.53369 0,-10.44913 -0.53996,-19.57477 -1.61962,-27.37695 -1.07984,-7.80197 -2.82138,-14.28048 -5.22461,-19.43555 -2.4034,-5.15482 -5.48592,-9.02102 -9.24756,-11.59863 -3.76179,-2.57734 -8.32461,-3.86607 -13.68848,-3.86621 -5.36398,0 -9.90939,1.28887 -13.63623,3.86621 -3.72693,2.57761 -6.73978,6.44381 -9.03857,11.59863 -2.29887,5.15507 -3.97074,11.63358 -5.01563,19.43555 -1.04495,7.80218 -1.56741,16.92782 -1.56738,27.37695 z" id="path2905"/>
    <path d="m 460.08203,187.56656 h -95.29687 v -16.30078 l 36.57226,-39.81153 q 7.83692,-8.46386 14.00195,-15.46484 6.16504,-7.00098 10.44922,-13.68848 4.38868,-6.687496 6.6875,-13.374996 2.29883,-6.791992 2.29883,-14.733399 0,-6.165039 -1.77637,-10.867187 -1.77636,-4.702149 -5.12011,-7.941406 -3.23926,-3.34375 -7.73242,-5.015625 -4.49317,-1.671875 -10.03125,-1.671875 -9.92676,0 -17.97266,4.075195 -7.94141,3.970703 -15.15137,10.240234 l -10.6582,-12.43457 q 4.17969,-3.761719 8.98633,-7.000977 4.80664,-3.34375 10.34472,-5.74707 5.53809,-2.40332 11.70313,-3.761719 6.16504,-1.46289 12.95703,-1.46289 10.03125,0 18.07715,2.821289 8.15039,2.821289 13.79297,8.15039 5.64258,5.22461 8.67285,12.85254 3.13476,7.523437 3.13476,17.032226 0,8.881836 -2.82128,16.927734 -2.7168,8.045899 -7.62793,15.882816 -4.80665,7.73242 -11.59864,15.56933 -6.6875,7.83692 -14.52441,16.30078 l -29.36231,31.24317 v 0.83594 h 71.99512 z" id="path2911"/>
    <path d="m 503.19141,92.73682 v 1.78613 h 154.55273 v -1.78613 z" id="rect2987"/>
    <path d="M 626.75781,267.22281 H 531.46094 V 250.92203 L 568.0332,211.1105 q 7.83692,-8.46386 14.00196,-15.46484 6.16504,-7.00098 10.44921,-13.68848 4.38868,-6.6875 6.6875,-13.375 2.29883,-6.79199 2.29883,-14.73339 0,-6.16504 -1.77636,-10.86719 -1.77637,-4.70215 -5.12012,-7.94141 -3.23926,-3.34375 -7.73242,-5.01562 -4.49317,-1.67188 -10.03125,-1.67188 -9.92676,0 -17.97266,4.0752 -7.94141,3.9707 -15.15137,10.24023 l -10.6582,-12.43457 q 4.17969,-3.76172 8.98633,-7.00098 4.80664,-3.34375 10.34472,-5.74707 5.53809,-2.40332 11.70313,-3.76171 6.16504,-1.4629 12.95703,-1.4629 10.03125,0 18.07715,2.82129 8.15039,2.82129 13.79297,8.15039 5.64258,5.22461 8.67285,12.85254 3.13477,7.52344 3.13477,17.03223 0,8.88184 -2.82129,16.92773 -2.7168,8.0459 -7.62793,15.88282 -4.80664,7.73242 -11.59864,15.56933 -6.6875,7.83692 -14.52441,16.30078 l -29.3623,31.24317 v 0.83594 h 71.99511 z" id="path2914"/>
    <path d="m 621.84668,-41.058434 q 0,7.62793 -2.40332,13.897461 -2.40332,6.269532 -6.79199,10.867188 -4.28418,4.597656 -10.34473,7.6279296 -6.06055,2.9257812 -13.47949,4.1796875 v 0.6269531 q 18.49512,2.2988281 28.1084,11.8076172 9.61328,9.4042966 9.61328,24.5556636 0,10.03125 -3.44824,18.390625 -3.34375,8.359375 -10.24024,14.419922 -6.89648,6.060547 -17.45019,9.404297 -10.55371,3.34375 -24.97364,3.34375 -11.38965,0 -21.52539,-1.776367 -10.03125,-1.776367 -18.91308,-6.478516 V 52.044106 q 9.09082,4.80664 19.64453,7.418945 10.6582,2.612305 20.37597,2.612305 9.61329,0 16.61426,-2.089844 7.00098,-2.089844 11.49414,-5.956055 4.59766,-3.866211 6.6875,-9.508789 2.19434,-5.642578 2.19434,-12.643555 0,-7.105468 -2.82129,-12.121093 -2.7168,-5.120118 -7.83691,-8.359375 Q 591.23047,8.0528946 583.81152,6.4855118 576.49707,4.918129 567.19727,4.918129 H 553.2998 v -15.77832 h 13.89747 q 8.46386,0 15.04687,-2.089844 6.58301,-2.089844 10.97168,-5.956055 4.49316,-3.866211 6.79199,-9.195312 2.29883,-5.329102 2.29883,-11.703125 0,-5.433594 -1.88086,-9.717774 -1.88086,-4.284179 -5.3291,-7.209961 -3.44824,-3.030273 -8.25488,-4.597656 -4.80664,-1.567383 -10.65821,-1.567383 -11.18066,0 -19.74902,3.552735 -8.46387,3.448242 -16.19629,9.09082 L 530.625,-63.315269 q 3.9707,-3.239258 8.77734,-6.060547 4.91114,-2.821289 10.65821,-4.911133 5.74707,-2.194336 12.22558,-3.448242 6.58301,-1.253907 13.89746,-1.253907 11.28516,0 19.74903,2.821289 8.56836,2.82129 14.31543,7.941407 5.74707,5.015625 8.67285,12.016601 2.92578,6.896485 2.92578,15.151367 z" id="path2917"/>
  </g>
  <g transform="matrix(0.0818,0,0,0.0818,38.657688,288.55471)" style="font-weight:bold;font-stretch:condensed;font-family:Miso;fill:hsl(16, 100%, 40%)" aria-label="Public Domain Day" id="text2875">
    <path d="m 52,-604 v 576 c 0,27 21,48 48,48 26,0 48,-21 48,-48 v -232 h 72 c 93,0 168,-75 168,-168 v -56 c 0,-93 -75,-168 -168,-168 H 100 c -27,0 -48,22 -48,48 z m 240,120 v 56 c 0,40 -32,72 -72,72 h -72 v -200 h 72 c 40,0 72,32 72,72 z" id="path2884"/>
    <path d="m 678.30774,13 h 100 c 25,0 45,-20 45,-45 v -396 c 0,-25 -20,-45 -45,-45 -25,0 -45,20 -45,45 v 351 h -55 c -30,0 -55,-25 -55,-55 v -296 c 0,-25 -20,-45 -45,-45 -25,0 -45,20 -45,45 v 296 c 0,80 65,145 145,145 z" id="path2886"/>
    <path d="m 1064.616,13 h 100 c 80,0 145,-65 145,-145 v -192 c 0,-80 -65,-145 -145,-145 h -55 v -159 c 0,-25 -20,-45 -45,-45 -25,0 -45,20 -45,45 v 596 c 0,25 20,45 45,45 z m 100,-392 c 30,0 55,25 55,55 v 192 c 0,30 -25,55 -55,55 h -55 v -302 z" id="path2888"/>
    <path d="m 1553.9246,11 c 21,12 49,5 61,-16 13,-22 5,-49 -16,-62 -11,-6 -18,-18 -18,-30 v -531 c 0,-25 -20,-45 -45,-45 -24,0 -45,20 -45,45 v 531 c 0,44 24,86 63,108 z" id="path2890"/>
    <path d="m 1825.2334,-523 c 31,0 55,-25 55,-55 0,-30 -24,-55 -55,-55 -30,0 -55,25 -55,55 0,30 25,55 55,55 z m 45,495 v -400 c 0,-25 -20,-45 -45,-45 -25,0 -45,20 -45,45 v 400 c 0,25 20,45 45,45 25,0 45,-20 45,-45 z" id="path2892"/>
    <path d="m 2143.5424,6 c 55,23 117,10 158,-31 18,-18 18,-46 0,-64 -17,-18 -46,-18 -63,0 -16,16 -40,20 -60,12 -21,-9 -34,-29 -34,-51 v -200 c 0,-22 13,-42 34,-51 20,-8 44,-4 60,12 17,18 46,18 63,0 18,-17 18,-46 0,-63 -41,-42 -103,-54 -158,-32 -54,23 -89,75 -89,134 v 200 c 0,59 35,111 89,134 z" id="path2894"/>
    <path d="m 2804.157,-652 c -27,0 -48,22 -48,48 v 572 c 0,27 21,48 48,48 h 120 c 93,0 168,-75 168,-168 v -332 c 0,-93 -75,-168 -168,-168 z m 192,168 v 332 c 0,40 -32,72 -72,72 h -72 v -476 h 72 c 40,0 72,32 72,72 z" id="path2896"/>
    <path d="m 3406.4646,17 c 80,0 145,-65 145,-145 v -200 c 0,-80 -65,-145 -145,-145 -80,0 -145,65 -145,145 v 200 c 0,80 65,145 145,145 z m 0,-400 c 30,0 55,25 55,55 v 200 c 0,30 -25,55 -55,55 -31,0 -55,-25 -55,-55 v -200 c 0,-30 24,-55 55,-55 z" id="path2898"/>
    <path d="m 3935.7722,-379 v 351 c 0,25 20,45 45,45 24,0 45,-20 45,-45 v -351 h 55 c 30,0 55,25 55,55 v 296 c 0,25 20,45 45,45 24,0 45,-20 45,-45 v -296 c 0,-80 -66,-145 -145,-145 h -300 c -25,0 -45,20 -45,45 v 396 c 0,25 20,45 45,45 24,0 45,-20 45,-45 v -351 z" id="path2900"/>
    <path d="m 4519.0811,-277 c -80,0 -145,65 -145,145 0,80 65,145 145,145 h 100 c 25,0 45,-20 45,-45 v -298 c 0,-58 -35,-110 -89,-132 -53,-22 -114,-10 -155,31 -18,18 -18,46 0,64 17,17 46,17 63,0 15,-16 38,-20 58,-12 20,8 33,28 33,49 v 53 z m 0,90 h 55 v 110 h -55 c -31,0 -55,-25 -55,-55 0,-30 24,-55 55,-55 z" id="path2903"/>
    <path d="m 4897.3887,-523 c 31,0 55,-25 55,-55 0,-30 -24,-55 -55,-55 -30,0 -55,25 -55,55 0,30 25,55 55,55 z m 45,495 v -400 c 0,-25 -20,-45 -45,-45 -25,0 -45,20 -45,45 v 400 c 0,25 20,45 45,45 25,0 45,-20 45,-45 z" id="path2906"/>
    <path d="m 5183.6978,17 c 24,0 45,-20 45,-45 v -351 h 55 c 30,0 55,25 55,55 v 296 c 0,25 20,45 45,45 24,0 45,-20 45,-45 v -296 c 0,-80 -65,-145 -145,-145 h -100 c -25,0 -45,20 -45,45 v 396 c 0,25 20,45 45,45 z" id="path2909"/>
    <path d="m 5940.3135,-652 c -27,0 -48,22 -48,48 v 572 c 0,27 21,48 48,48 h 120 c 93,0 168,-75 168,-168 v -332 c 0,-93 -75,-168 -168,-168 z m 192,168 v 332 c 0,40 -32,72 -72,72 h -72 v -476 h 72 c 40,0 72,32 72,72 z" id="path2912"/>
    <path d="m 6514.6211,-277 c -80,0 -145,65 -145,145 0,80 65,145 145,145 h 100 c 25,0 45,-20 45,-45 v -298 c 0,-58 -35,-110 -89,-132 -53,-22 -114,-10 -155,31 -18,18 -18,46 0,64 17,17 46,17 63,0 15,-16 38,-20 58,-12 20,8 33,28 33,49 v 53 z m 0,90 h 55 v 110 h -55 c -31,0 -55,-25 -55,-55 0,-30 24,-55 55,-55 z" id="path2915"/>
    <path d="m 6832.9282,217 c 31,0 61,-10 87,-29 25,-18 43,-44 52,-74 0,0 0,0 0,0 l 38,-129 c 0,0 0,0 0,0 l 121,-400 c 7,-24 -7,-49 -31,-56 -23,-7 -49,6 -56,30 l -77,256 -76,-256 c -8,-24 -33,-37 -56,-30 -24,7 -38,32 -31,56 l 116,387 -34,116 c 0,0 0,0 0,0 -7,23 -28,39 -53,39 -25,0 -45,20 -45,45 0,25 20,45 45,45 z" id="path2918"/>
  </g>
<script xmlns=""/></svg>
